<?xml version="1.0" encoding="utf-8"?>
<!-- Generator: Adobe Illustrator 19.1.0, SVG Export Plug-In . SVG Version: 6.00 Build 0)  -->
<svg version="1.1" id="Layer_2" xmlns="http://www.w3.org/2000/svg" xmlns:xlink="http://www.w3.org/1999/xlink" x="0px" y="0px"
	 viewBox="0 0 100 100" style="enable-background:new 0 0 100 100;" xml:space="preserve">
<style type="text/css">
	.st0{fill:#89CBC9;}
	.st1{enable-background:new    ;}
	.st2{fill:#FFFFFF;}
</style>
<circle class="st0" cx="50" cy="49.6" r="44.7"/>
<g class="st1">
	<path class="st2" d="M19.3,72.1V29.2h16.1c3.3,0,5.9,0.4,7.9,1.3c2,0.9,3.5,2.2,4.7,4c1.1,1.8,1.7,3.7,1.7,5.7
		c0,1.8-0.5,3.6-1.5,5.2s-2.5,2.9-4.5,3.9c2.6,0.8,4.6,2.1,6,3.9c1.4,1.8,2.1,4,2.1,6.5c0,2-0.4,3.9-1.3,5.6s-1.9,3.1-3.1,4
		c-1.2,0.9-2.8,1.6-4.7,2.1c-1.9,0.5-4.2,0.7-6.9,0.7H19.3z M25,47.2h9.3c2.5,0,4.3-0.2,5.4-0.5c1.4-0.4,2.5-1.1,3.3-2.1
		s1.1-2.2,1.1-3.8c0-1.4-0.3-2.7-1-3.8c-0.7-1.1-1.7-1.8-2.9-2.2c-1.3-0.4-3.4-0.6-6.5-0.6H25V47.2z M25,67h10.7
		c1.8,0,3.1-0.1,3.9-0.2c1.3-0.2,2.4-0.6,3.3-1.2s1.6-1.3,2.2-2.4c0.6-1,0.8-2.3,0.8-3.6c0-1.6-0.4-3-1.2-4.2s-2-2-3.4-2.5
		c-1.5-0.5-3.5-0.7-6.3-0.7H25V67z"/>
</g>
<g class="st1">
	<path class="st2" d="M78.6,62.1l5.4,0.7c-0.9,3.2-2.5,5.7-4.8,7.4s-5.3,2.6-8.9,2.6c-4.6,0-8.2-1.4-10.8-4.2s-4-6.7-4-11.8
		c0-5.2,1.3-9.3,4-12.2s6.2-4.3,10.5-4.3c4.2,0,7.6,1.4,10.2,4.2s4,6.8,4,12c0,0.3,0,0.8,0,1.4H61c0.2,3.4,1.2,6,2.9,7.9
		s3.9,2.7,6.5,2.7c1.9,0,3.6-0.5,5-1.5S77.8,64.3,78.6,62.1z M61.2,53.6h17.4c-0.2-2.6-0.9-4.6-2-5.9c-1.7-2-3.9-3-6.5-3
		c-2.4,0-4.5,0.8-6.1,2.4S61.4,50.8,61.2,53.6z"/>
</g>
<rect x="61.1" y="33.5" class="st2" width="17.1" height="4.4"/>
</svg>
