<?xml version="1.0" encoding="utf-8"?>
<!-- Generator: Adobe Illustrator 19.1.0, SVG Export Plug-In . SVG Version: 6.00 Build 0)  -->
<svg version="1.1" id="Layer_4" xmlns="http://www.w3.org/2000/svg" xmlns:xlink="http://www.w3.org/1999/xlink" x="0px" y="0px"
	 viewBox="0 0 100 100" style="enable-background:new 0 0 100 100;" xml:space="preserve">
<style type="text/css">
	.st0{fill:#89CBC9;}
	.st1{fill:#FFFFFF;}
</style>
<path class="st0" d="M72.2,84H28.4c-13.8,0-25-11.2-25-25V49c0-13.8,11.2-25,25-25h43.8c13.8,0,25,11.3,25,25v10
	C97.2,72.7,86,84,72.2,84z"/>
<path class="st0" d="M10.6,17c-0.2,17.3-0.2,17.3-0.2,17.3L32,29.9C32,29.9,10.8-0.3,10.6,17z"/>
<path class="st0" d="M78.5,14.4c-10,14.1-10,14.1-10,14.1l20.3,8.6C88.9,37.1,88.5,0.2,78.5,14.4z"/>
<g>
	<path class="st1" d="M71,74.6c-13.1,2.4-26.6,2.5-39.7,0.2c-6.4-1.1-11.4-7.9-11.2-14.2c0-2,0.1-4.1,0.1-6.1
		c0.1-6.4,5.3-10.1,11.5-8.9c12.9,2.4,26.1,2.4,39,0.2c6.2-1.1,11.4,2.5,11.5,8.8c0,2,0.1,4,0.1,6C82.4,66.7,77.4,73.4,71,74.6z"/>
</g>
<ellipse class="st0" cx="33.6" cy="60.5" rx="5.6" ry="12.1"/>
<ellipse class="st0" cx="65.6" cy="60.5" rx="5.6" ry="12.1"/>
</svg>
