<?xml version="1.0" encoding="utf-8"?>
<!-- Generator: Adobe Illustrator 19.1.0, SVG Export Plug-In . SVG Version: 6.00 Build 0)  -->
<svg version="1.1" id="Layer_4" xmlns="http://www.w3.org/2000/svg" xmlns:xlink="http://www.w3.org/1999/xlink" x="0px" y="0px"
	 viewBox="0 0 300 300" style="enable-background:new 0 0 300 300;" xml:space="preserve">
<style type="text/css">
	.st0{fill:#300033;}
	.st1{fill:#300033;stroke:#300033;stroke-width:20;stroke-linecap:round;stroke-linejoin:round;stroke-miterlimit:10;}
	.st2{fill:#FFFFFF;}
	.st3{fill:none;stroke:#300033;stroke-width:3;stroke-miterlimit:10;}
	.st4{fill:none;stroke:#300033;stroke-width:3;stroke-miterlimit:10;stroke-dasharray:3.0902,3.0902;}
	.st5{fill:none;stroke:#300033;stroke-width:3;stroke-miterlimit:10;stroke-dasharray:2.9708,2.9708;}
	.st6{fill:none;stroke:#300033;stroke-width:3;stroke-miterlimit:10;stroke-dasharray:3.0474,3.0474;}
</style>
<circle class="st0" cx="132.7" cy="169.9" r="40.3"/>
<line class="st1" x1="133" y1="119" x2="133" y2="139"/>
<ellipse class="st2" cx="129.4" cy="122.7" rx="3" ry="6.6"/>
<ellipse class="st0" cx="129.4" cy="122.4" rx="1.4" ry="2.7"/>
<g>
	<g>
		<line class="st3" x1="129.4" y1="122.7" x2="128" y2="123.1"/>
		<line class="st4" x1="125" y1="123.9" x2="90.7" y2="133.4"/>
		<line class="st3" x1="89.2" y1="133.8" x2="87.8" y2="134.2"/>
	</g>
</g>
<g>
	<g>
		<line class="st3" x1="129.4" y1="122.7" x2="127.9" y2="122.7"/>
		<line class="st5" x1="124.9" y1="122.7" x2="90.8" y2="122.4"/>
		<line class="st3" x1="89.3" y1="122.4" x2="87.8" y2="122.4"/>
	</g>
</g>
<g>
	<g>
		<line class="st3" x1="129.3" y1="123.2" x2="127.8" y2="122.8"/>
		<line class="st6" x1="124.9" y1="122.1" x2="90.8" y2="113.8"/>
		<line class="st3" x1="89.4" y1="113.5" x2="87.9" y2="113.1"/>
	</g>
</g>
<g>
	<path class="st2" d="M138.1,135.5c-0.4,0,6.5-1.8,12,0.7c5.7,2,9.9,8.4,8.9,12.3c-0.5,4.4-2.2-4-7.7-8
		C146.4,135.6,137.7,135,138.1,135.5z"/>
</g>
</svg>
