<?xml version="1.0" encoding="utf-8"?>
<!-- Generator: Adobe Illustrator 19.1.0, SVG Export Plug-In . SVG Version: 6.00 Build 0)  -->
<svg version="1.1" xmlns="http://www.w3.org/2000/svg" xmlns:xlink="http://www.w3.org/1999/xlink" x="0px" y="0px"
	 viewBox="0 0 300 300" style="enable-background:new 0 0 300 300;" xml:space="preserve">
<style type="text/css">
	.st0{fill:none;stroke:#000000;stroke-width:50;stroke-linecap:round;stroke-linejoin:round;stroke-miterlimit:10;}
	.st1{fill:#FFFFFF;}
	.st2{fill:none;stroke:#000000;stroke-width:3;stroke-miterlimit:10;}
	.st3{fill:none;stroke:#000000;stroke-width:3;stroke-miterlimit:10;stroke-dasharray:7.9698,7.9698;}
	.st4{fill:none;stroke:#000000;stroke-width:3;stroke-miterlimit:10;stroke-dasharray:7.6424,7.6424;}
	.st5{fill:none;stroke:#000000;stroke-width:3;stroke-miterlimit:10;stroke-dasharray:7.8523,7.8523;}
</style>
<g id="Layer_1">
	<circle cx="142.7" cy="180.4" r="59.5"/>
</g>
<g id="Layer_2">
	<line class="st0" x1="142" y1="106" x2="142" y2="134"/>
</g>
<g id="Layer_3">
	<ellipse class="st1" cx="137.8" cy="110.7" rx="4.4" ry="9.7"/>
	<ellipse cx="137.8" cy="110.2" rx="2.1" ry="4"/>
</g>
<g id="Layer_4">
	<g>
		<g>
			<line class="st2" x1="137.8" y1="110.7" x2="133.9" y2="111.7"/>
			<line class="st3" x1="126.2" y1="113.8" x2="84" y2="125.5"/>
			<line class="st2" x1="80.1" y1="126.6" x2="76.3" y2="127.6"/>
		</g>
	</g>
	<g>
		<g>
			<line class="st2" x1="137.8" y1="110.7" x2="133.8" y2="110.6"/>
			<line class="st4" x1="126.1" y1="110.6" x2="84.1" y2="110.2"/>
			<line class="st2" x1="80.3" y1="110.2" x2="76.3" y2="110.2"/>
		</g>
	</g>
	<g>
		<g>
			<line class="st2" x1="137.8" y1="110.7" x2="133.9" y2="109.8"/>
			<line class="st5" x1="126.2" y1="108.1" x2="84" y2="98.8"/>
			<line class="st2" x1="80.2" y1="98" x2="76.3" y2="97.1"/>
		</g>
	</g>
</g>
<g id="Layer_5">
	<g>
		<path class="st1" d="M150.6,129.5c-0.5,0,9.6-2.7,17.7,1.1c8.4,3,14.7,12.5,13.2,18.2c-0.8,6.6-3.2-5.9-11.4-11.9
			C162.9,129.6,150.1,128.8,150.6,129.5z"/>
	</g>
</g>
</svg>
