<?xml version="1.0" encoding="utf-8"?>
<!-- Generator: Adobe Illustrator 19.1.0, SVG Export Plug-In . SVG Version: 6.00 Build 0)  -->
<svg version="1.1" id="Layer_1" xmlns="http://www.w3.org/2000/svg" xmlns:xlink="http://www.w3.org/1999/xlink" x="0px" y="0px"
	 viewBox="450 -450 1000 1000" style="enable-background:new 450 -450 1000 1000;" xml:space="preserve">
<style type="text/css">
	.st0{fill:#89CBC9;}
</style>
<path class="st0" d="M450,401.1c108.1,13,209.6-16.3,304.7-87.9c-44.3,1.3-83.3-11.7-117.2-39.1s-59.2-62.5-76.2-105.5
	c11.7,2.6,26,3.3,43,2c22.1-1.3,38.4-3.3,48.8-5.9c-66.4-22.1-112.6-57.9-138.7-107.4C498.8,23.5,491-11,491-46.1
	c37.8,19.5,68.4,28.6,91.8,27.3c-53.4-45.6-83.3-94.4-89.8-146.5c-3.9-41.7,4.6-86.6,25.4-134.8c75.5,83.4,154.9,143.3,238.2,179.8
	c62.5,26,124.3,39.1,185.5,39.1c-7.8-62.5,0.7-115.2,25.4-158.2c29.9-46.9,72.9-78.1,128.9-93.7c36.5-9.1,71.6-8.1,105.5,2.9
	c33.9,11.1,62.5,29.6,85.9,55.7c40.4-3.9,84.6-20.2,132.8-48.8c-19.5,57.3-50.1,96.3-91.8,117.2c41.7-6.5,82-18.2,121.1-35.2
	c-6.5,13-18.9,30.6-37.1,52.7s-41,41-68.4,56.6c1.3,6.5,2,12.4,2,17.6c2.6,72.9-11.7,150.4-43,232.4
	c-53.4,134.1-134.1,235-242.2,302.7c-106.8,59.9-234.4,82.7-382.8,68.4C584.8,478.6,508.7,449.3,450,401.1L450,401.1z"/>
</svg>
